<?xml version="1.0" encoding="UTF-8"?>
<svg width="34px" height="34px" viewBox="0 0 34 34" version="1.1" xmlns="http://www.w3.org/2000/svg" xmlns:xlink="http://www.w3.org/1999/xlink">
    <!-- Generator: Sketch 51.2 (57519) - http://www.bohemiancoding.com/sketch -->
    <title>icon_filter</title>
    <desc>Created with Sketch.</desc>
    <defs></defs>
    <g id="icon_filter" stroke="none" stroke-width="1" fill="none" fill-rule="evenodd">
        <g transform="translate(8.000000, 8.000000)" fill="#80858E" id="Fill-1">
            <path d="M17.1565,0 C17.391,0 17.59,0.0819335378 17.754,0.245800613 C17.918,0.409667689 18,0.609005991 18,0.842816331 C18,1.07712626 17.918,1.27646457 17.754,1.44033164 L11.25,7.93906005 L11.25,17.1425944 C11.25,17.4938095 11.098,17.7456053 10.793,17.8974821 C10.4885,18.0498585 10.1955,18.0323726 9.9145,17.8450246 L7.102,15.8776205 C6.8675,15.6902725 6.7505,15.4559625 6.7505,15.1751903 L6.7505,7.93906005 L0.2465,1.44033164 C0.0825,1.27646457 0,1.07712626 0,0.842816331 C0,0.609005991 0.0825,0.409667689 0.2465,0.245800613 C0.4105,0.0819335378 0.6095,0 0.844,0 L17.1565,0 Z"></path>
        </g>
    </g>
</svg>